<svg width="390" height="160" viewBox="0 0 390 160" fill="none" xmlns="http://www.w3.org/2000/svg">
<path d="M77 120.5C46 120.5 1.5 164.5 -16.5 148L-28.5 70C-4 95.5 40.8124 69.2465 61.5 63.5C79.5 58.5 104.9 47.6 130.5 70C147.071 84.5 170.5 94 190 88C236.511 73.6888 250.5 62 284.5 53.5C333.5 41.25 399.5 59.5 399.5 59.5V153C393 154 372.5 128 329 128C290 128 249.5 147.167 219.5 153C205.1 155.8 158.5 157.5 138.5 132.5C126.1 117 104 120.5 77 120.5Z" fill="#ABC985" stroke="#ABC985" stroke-width="2"/>
<path d="M226.435 116.377C233.197 114.859 258.779 110.679 277.507 109.341L301.484 109.04L320.077 119.006L299.885 122.236L272.831 118.992C266.825 119.233 241.664 117.454 226.435 116.377Z" fill="#81BE64"/>
<path d="M232.381 98.1648C246.426 97.1617 263.782 96.3926 279.72 96.8542L302.334 106.439L310.901 117.026C300.401 114.953 259.863 104.766 232.381 98.1648Z" fill="#72AE56"/>
<path d="M240.112 129.988C256.519 123.828 287.298 112.03 310.286 116.317L319.556 116.973L320.365 124.35L293.598 126.45C293.598 126.45 257.468 129.219 240.112 129.988Z" fill="#72AE56"/>
<path d="M390.792 135.319L392.291 114.131C380.894 115.321 362.401 113.348 354.502 112.124C349.921 120.451 349.546 125.748 352.342 133.266C363.692 132.738 384.218 134.189 390.792 135.319Z" fill="#EAF9E3"/>
<path d="M354.502 112.124L339.366 109.723C333.414 118.618 333.039 123.915 337.634 134.222L352.342 133.266C349.546 125.748 349.921 120.451 354.502 112.124Z" fill="#97D07C"/>
<path d="M247.837 152.494C281.927 140.93 300.935 135.62 337.634 134.222C333.039 123.915 333.414 118.618 339.366 109.723C302.521 103.79 293.579 98.4997 261.214 76.2475C272.484 95.6771 299.879 112.92 317.335 120.143C303.905 121.855 271.233 132.188 247.837 152.494Z" fill="#5B9E3C"/>
<path d="M295.648 64.1341C282.886 59.4296 269.154 45.795 275.897 26.7023C283.83 4.24008 310.55 7.34949 320.19 11.9932C335.879 19.5503 340.76 35.4816 338.175 44.1922C333.906 58.5804 317.638 72.2404 295.648 64.1341Z" fill="#E35C5C"/>
<path d="M305.658 45.8021C299.852 43.9186 294.61 35.3515 297.209 29.8294C298.573 26.9327 305.193 27.097 306.935 27.5027C313.119 27.5656 318.722 25.197 320.784 25.218C324.906 25.2599 330.774 32.596 329.136 38.643C327.889 42.026 315.69 49.0572 305.658 45.8021Z" fill="#EC8484"/>
<path d="M295.648 64.1341C282.886 59.4295 269.154 45.795 275.897 26.7022C278.399 19.6191 282.768 15.0787 287.881 12.3273C272.209 43.5218 302.793 66.065 333.108 54.1444C325.759 63.8876 312.355 70.2929 295.648 64.1341Z" fill="#C65757"/>
<path d="M303.403 17.0373C301.088 18.1052 295.253 19.5012 290.274 20.1782C291.72 21.0661 300.327 21.3719 305.306 20.6948C306.374 23.0099 306.174 30.7694 304.673 35.2413C305.452 35.0551 308.997 27.5237 310.148 21.5929C312.093 21.1276 320.311 23.96 324.42 25.3762C323.352 23.0612 316.237 19.1081 311.163 17.2374C312.526 14.3407 316.912 9.03375 322.294 7.89114C320 6.89763 314.027 9.86878 310.465 14.3197C310.372 13.9307 311.014 8.01905 310.2 4.6151L306.225 13.7915C305.202 9.51229 300.611 5.36657 296.879 2.66061C300.59 7.42801 302.24 12.1745 303.403 17.0373Z" fill="#396225"/>
<path d="M174.446 100.203C170.154 89.075 154.038 83.1142 155.051 71.0633C156.065 59.0125 163.824 48.8981 178.01 51.896L182.385 55.3758L176.205 55.6029C173.774 55.498 164.505 67.4396 171.967 75.6599C177.28 81.5137 188.791 97.6128 191.616 108.43C186.958 111.126 180.026 114.669 174.446 100.203Z" fill="#F2B844"/>
<path d="M171.967 75.66C177.28 81.5138 188.791 97.6129 191.616 108.431C197.872 110.264 206.629 107.515 209.723 102.547C206.899 91.7295 207.714 69.5166 207.382 65.2576C206.694 56.4243 198.791 52.7102 193.41 51.573L176.205 55.6029C173.774 55.4981 164.505 67.4397 171.967 75.66Z" fill="#F2C553"/>
<path d="M189.042 48.0587L193.417 51.5385C198.798 52.6756 206.694 56.4243 207.382 65.2575C207.714 69.5166 206.906 91.695 209.731 102.513C224.641 102.086 216.928 87.6802 218.427 78.2873C220.006 68.4 221.594 56.0448 214.742 47.3572C210.712 42.2468 203.244 39.5804 194.582 43.608C192.315 44.662 189.042 48.0587 189.042 48.0587Z" fill="#EA9237"/>
<path d="M185.81 56.0994L194.002 51.1871C189.552 45.6472 189.269 44.5654 190.613 38.2059C191.13 35.7599 195.429 37.1795 196.229 35.8153C197.364 32.3758 197.159 31.4125 193.066 29.0145C190.884 27.7356 185.184 32.4592 182.09 37.4269C181.366 40.8513 178.989 52.1028 177.183 55.8096L181.497 55.9545L185.81 56.0994Z" fill="#657623"/>
<path d="M182.09 37.4269C181.246 38.7817 178.989 52.1028 177.183 55.8096L181.497 55.9545L185.81 56.0994C184.35 46.081 184.612 40.0039 193.973 29.5628C193.694 29.3879 193.393 29.2058 193.066 29.0145C190.884 27.7356 185.184 32.4592 182.09 37.4269Z" fill="#8EA03E"/>
</svg>
